<svg height="442" viewBox="0 0 452 442" width="452" xmlns="http://www.w3.org/2000/svg" xmlns:xlink="http://www.w3.org/1999/xlink"><defs><circle id="a" cx="259.5" cy="259.5" r="259.5"/><mask id="b" fill="#fff"><use fill="#fff" fill-rule="evenodd" xlink:href="#a"/></mask></defs><g fill="none" fill-rule="evenodd"><use fill="#fff" xlink:href="#a"/><g mask="url(#b)"><g transform="translate(114.940375 63.174286)"><rect fill="#f4fdf8" fill-rule="evenodd" height="46.860307" rx="9.702" width="67.195911" x="31.829642" y="40.67121"/><rect fill="#f4fdf8" fill-rule="evenodd" height="46.860307" rx="9.702" width="106.098807" x="19.451448" y="72.500852"/><circle cx="122.013629" cy="260.826235" fill="none" r="106.098807" stroke="#f4fdf8" stroke-width="22.932"/><circle cx="122.013629" cy="260.826235" fill="#59d474" fill-rule="evenodd" r="11.494038"/><g fill="none" fill-rule="evenodd" transform="translate(47.744463 187.441227)"><path d="m62.6246651 12.6650177c-28.6409258 5.6276682-50.2464709 30.871746-50.2464709 61.1620692" stroke="#f4fdf8" stroke-width="25.578"/><g fill="#f4fdf8"><circle cx="12.820273" cy="74.711244" r="12.820273"/><circle cx="60.564736" cy="13.08552" r="12.820273"/></g></g><path d="m183.754137 261.710392c-28.640926 5.627668-50.246471 30.871746-50.246471 61.162069" fill="none" stroke="#f4fdf8" stroke-width="25.578" transform="matrix(-1 0 0 -1 317.261804 584.582852)"/><g fill="#f4fdf8" fill-rule="evenodd"><circle cx="183.462521" cy="262.15247" r="12.820273"/><circle cx="133.949744" cy="322.275128" r="12.820273"/><path d="m154.983236-1.42036805h.056075c6.332497 0 11.466 5.13350306 11.466 11.46600005v255.57737c0 6.332497-5.133503 11.466-11.466 11.466h-.056075c-6.332497 0-11.466-5.133503-11.466-11.466v-255.57737c0-6.33249699 5.133503-11.46600005 11.466-11.46600005z" transform="matrix(.96592583 .25881905 -.25881905 .96592583 40.956027 -35.423279)"/><path d="m302.795642-47.302385h.056075c6.332497 0 11.466 5.133503 11.466 11.466v255.57737c0 6.332497-5.133503 11.466-11.466 11.466h-.056075c-6.332497 0-11.466-5.133503-11.466-11.466v-255.57737c0-6.332497 5.133503-11.466 11.466-11.466z" transform="matrix(0 1 -1 0 394.77598 -210.87138)"/><path d="m82.1985383 37.1345826h.056075c6.3324969 0 11.466 5.1335031 11.466 11.466v141.5211514c0 6.332497-5.1335031 11.466-11.466 11.466h-.056075c-6.3324969 0-11.466-5.133503-11.466-11.466v-141.5211514c0-6.3324969 5.1335031-11.466 11.466-11.466z" transform="matrix(0 1 -1 0 201.587734 37.134582)"/><path d="m285.451414 24.6042519h.056075c6.332497 0 11.466 5.1335031 11.466 11.466v270.6080341c0 6.332497-5.133503 11.466-11.466 11.466h-.056075c-6.332497 0-11.466-5.133503-11.466-11.466v-270.6080341c0-6.3324969 5.133503-11.466 11.466-11.466z" transform="matrix(-.39073113 .92050485 -.92050485 -.39073113 554.776007 -24.449691)"/></g><path d="m190.132802 14.5586358c-4.702253 0-27.414344-2.5223679-31.719684-1.5100148-20.508088 4.8222507-35.515333 20.3116118-35.515333 38.6745477" fill="none" stroke="#f4fdf8" stroke-width="22.932"/><circle cx="122.897785" cy="52.165247" fill="#f4fdf8" fill-rule="evenodd" r="11.494038"/><rect fill="#f4fdf8" fill-rule="evenodd" height="17.683135" rx="8.82" width="50.396934" x="226.344123" y="328.022147"/><rect fill="#f4fdf8" fill-rule="evenodd" height="17.683135" rx="8.82" width="118.477002" x="191.86201" y="360.735945"/></g></g></g></svg>