<svg height="117" viewBox="0 0 117 117" width="117" xmlns="http://www.w3.org/2000/svg" xmlns:xlink="http://www.w3.org/1999/xlink"><defs><circle id="a" cx="58.5" cy="58.5" r="58.5"/><mask id="b" fill="#fff"><use fill="#fff" fill-rule="evenodd" xlink:href="#a"/></mask></defs><g fill="none" fill-rule="evenodd"><use fill="#f4fdf8" xlink:href="#a"/><g mask="url(#b)"><g transform="translate(25.911414 15.945486)"><rect fill="#000" fill-rule="evenodd" height="10.563884" rx="2.2" width="15.148211" x="7.175468" y="9.168654"/><rect fill="#000" fill-rule="evenodd" height="10.563884" rx="2.2" width="23.918228" x="4.385009" y="16.344123"/><circle cx="27.505963" cy="58.798978" fill="none" r="23.918228" stroke="#000" stroke-width="5.2"/><circle cx="27.505963" cy="58.798978" fill="#59d474" fill-rule="evenodd" r="2.591141"/><g fill="none" fill-rule="evenodd" transform="translate(10.763203 42.255537)"><path d="m14.1176991 2.8551196c-6.45662493 1.26866507-11.32723913 6.95952654-11.32723913 13.7879809" stroke="#000" stroke-width="5.8"/><g fill="#000"><circle cx="2.890119" cy="16.842419" r="2.890119"/><circle cx="13.653322" cy="2.949915" r="2.890119"/></g></g><path d="m41.424343 58.9982964c-6.4566249 1.2686651-11.3272391 6.9595266-11.3272391 13.7879809" fill="none" stroke="#000" stroke-width="5.8" transform="matrix(-1 0 0 -1 71.521446 131.784574)"/><g fill="#000" fill-rule="evenodd"><circle cx="41.358603" cy="59.097956" r="2.890119"/><circle cx="30.196763" cy="72.651618" r="2.890119"/><path d="m34.9447379-.32019858c1.4310479 0 2.5911414 1.16009352 2.5911414 2.5911414v57.60306648c0 1.4310478-1.1600935 2.5911414-2.5911414 2.5911414s-2.5911414-1.1600936-2.5911414-2.5911414v-57.60306648c0-1.43104788 1.1600935-2.5911414 2.5911414-2.5911414z" transform="matrix(.96592583 .25881905 -.25881905 .96592583 9.232862 -7.985595)"/><path d="m68.2666099-10.6635434c1.4310479 0 2.5911414 1.16009348 2.5911414 2.59114136v57.60306644c0 1.4310479-1.1600935 2.5911414-2.5911414 2.5911414s-2.5911414-1.1600935-2.5911414-2.5911414v-57.60306644c0-1.43104788 1.1600935-2.59114136 2.5911414-2.59114136z" transform="matrix(0 1 -1 0 88.995741 -47.537479)"/><path d="m18.5366269 8.3713799c1.4310479 0 2.5911414 1.16009352 2.5911414 2.5911414v31.890971c0 1.4310479-1.1600935 2.5911414-2.5911414 2.5911414s-2.5911414-1.1600935-2.5911414-2.5911414v-31.890971c0-1.43104788 1.1600935-2.5911414 2.5911414-2.5911414z" transform="matrix(0 1 -1 0 45.444634 8.37138)"/><path d="m64.3566394 5.54662327c1.4310478 0 2.5911414 1.16009352 2.5911414 2.5911414v60.99148213c0 1.4310479-1.1600936 2.5911414-2.5911414 2.5911414-1.4310479 0-2.5911414-1.1600935-2.5911414-2.5911414v-60.99148213c0-1.43104788 1.1600935-2.5911414 2.5911414-2.5911414z" transform="matrix(-.39073113 .92050485 -.92050485 -.39073113 125.065111 -5.511779)"/></g><path d="m42.8623079 3.2820046c-1.0600454 0-6.1801123-.5686263-7.1506801-.34040797-4.6232107 1.08709699-8.0063467 4.57891827-8.0063467 8.71853967" fill="none" stroke="#000" stroke-width="5.2"/><circle cx="27.705281" cy="11.759796" fill="#000" fill-rule="evenodd" r="2.591141"/><rect fill="#000" fill-rule="evenodd" height="3.986371" rx="1.993186" width="11.361158" x="51.025554" y="73.947189"/><rect fill="#000" fill-rule="evenodd" height="3.986371" rx="1.993186" width="26.708688" x="43.25213" y="81.321976"/></g></g><path d="m118.424865 7.41449346c1.431048 0 2.591142 1.16009352 2.591142 2.59114144v54.2146507c0 1.4310479-1.160094 2.5911414-2.591142 2.5911414-1.431047 0-2.591141-1.1600935-2.591141-2.5911414v-54.2146507c0-1.43104792 1.160094-2.59114144 2.591141-2.59114144z" fill="#000" mask="url(#b)" transform="matrix(.98768834 .15643447 -.15643447 .98768834 7.263753 -18.068808)"/></g></svg>