<svg height="101" viewBox="0 0 546 101" width="546" xmlns="http://www.w3.org/2000/svg"><g fill="none" fill-rule="evenodd" transform="translate(-1 -5)"><g transform="translate(158.6 16.8)"><path d="m0 0h56v56h-56z"/><path d="m37.3566667 25.6666667h-28.02333337v4.6666666h28.02333337v7l9.31-9.3333333-9.31-9.3333333z" fill="#000"/></g><g transform="translate(371.4 16.8)"><path d="m0 0h56v56h-56z"/><path d="m37.3566667 25.6666667h-28.02333337v4.6666666h28.02333337v7l9.31-9.3333333-9.31-9.3333333z" fill="#000"/></g><path d="m36.2 0h89.6v89.6h-89.6z"/><path d="m74.2933333 21.9893333-3.92-16.31466663c-.8213333-3.36-3.7333333-5.67466667-7.1306666-5.67466667h-51.856c-3.36000003 0-6.30933337 2.352-7.09333337 5.67466667l-3.92 16.31466663c-.896 3.808-.07466666 7.6906667 2.31466667 10.752.29866667.4106667.70933333.7093334 1.04533333 1.0826667v25.9093333c0 4.1066667 3.36 7.4666667 7.46666667 7.4666667h52.2666667c4.1066666 0 7.4666666-3.36 7.4666666-7.4666667v-25.9093333c.336-.336.7466667-.672 1.0453334-1.0453333 2.3893333-3.0613334 3.248-6.9813334 2.3146666-10.7893334zm-11.1626666-14.55999997 3.92 16.31466667c.3733333 1.568.0373333 3.136-.9333334 4.368-.5226666.672-1.6426666 1.7546667-3.5093333 1.7546667-2.2773333 0-4.256-1.8293334-4.5173333-4.256l-2.1653334-18.14400003zm-22.064.03733334h7.3173333l2.016 16.87466663c.1866667 1.456-.2613333 2.912-1.232 3.9946667-.8213333.9706667-2.016 1.5306667-3.5466667 1.5306667-2.5013333 0-4.5546666-2.2026667-4.5546666-4.8906667zm-16.8373334 16.87466663 2.0533334-16.87466663h7.3173333v17.50933333c0 2.688-2.0533333 4.8906667-4.816 4.8906667-1.2693333 0-2.4266667-.56-3.3226667-1.5306667-.9333333-1.0826667-1.3813333-2.5386667-1.232-3.9946667zm-16.6133333-.5973333 3.7706667-16.27733333h7.3546666l-2.1653333 18.14400003c-.2986667 2.4266666-2.24 4.256-4.5173333 4.256-1.8293334 0-2.9866667-1.0826667-3.47200003-1.7546667-1.008-1.1946667-1.344-2.8-.97066667-4.368zm3.584 35.9893333v-22.512c.2986667.0373334.56.112.8586667.112 3.248 0 6.1973333-1.344 8.3626666-3.5466666 2.24 2.24 5.2266667 3.5466666 8.624 3.5466666 3.248 0 6.16-1.344 8.3253334-3.472 2.2026666 2.128 5.1893333 3.472 8.5493333 3.472 3.136 0 6.1226667-1.3066666 8.3626667-3.5466666 2.1653333 2.2026666 5.1146666 3.5466666 8.3626666 3.5466666.2986667 0 .56-.0746666.8586667-.112v22.512z" fill="#000" fill-rule="nonzero" transform="translate(43.666667 11.2)"/><g transform="translate(460.2)"><g fill="#000"><path d="m63.4666667 56h7.4666666v7.4666667h-7.4666666zm0-14.9333333h7.4666666v7.4666666h-7.4666666zm0-14.9333334h7.4666666v7.4666667h-7.4666666zm-12.1706667 0 4.704 3.136v-3.136z" fill-rule="nonzero"/><path d="m37.3333333 11.2v5.6373333l7.4666667 4.9653334v-3.136h33.6v52.2666666h-14.9333333v7.4666667h22.4v-67.2z"/><path d="m30.5013333 21.28 25.4986667 16.9866667v40.1333333h-52.26666667v-39.2746667zm6.832 49.6533333h11.2v-29.2693333l-18.032-11.4613333-19.3013333 12.2826666v28.448h11.2v-22.4h14.9333333z" fill-rule="nonzero"/></g><path d="m0 0h89.6v89.6h-89.6z"/></g><g transform="translate(247.4)"><path d="m0 0h89.6v89.6h-89.6z"/><path d="m57.8666667 20.5333333c4.1066666 0 7.4666666-3.36 7.4666666-7.4666666 0-4.1066667-3.36-7.4666667-7.4666666-7.4666667-4.1066667 0-7.4666667 3.36-7.4666667 7.4666667 0 4.1066666 3.36 7.4666666 7.4666667 7.4666666zm-39.2 24.2666667c-10.45333337 0-18.6666667 8.2133333-18.6666667 18.6666667 0 10.4533333 8.21333333 18.6666666 18.6666667 18.6666666 10.4533333 0 18.6666666-8.2133333 18.6666666-18.6666666 0-10.4533334-8.2133333-18.6666667-18.6666666-18.6666667zm0 31.7333333c-7.0933334 0-13.0666667-5.9733333-13.0666667-13.0666666 0-7.0933334 5.9733333-13.0666667 13.0666667-13.0666667 7.0933333 0 13.0666666 5.9733333 13.0666666 13.0666667 0 7.0933333-5.9733333 13.0666666-13.0666666 13.0666666zm21.6533333-37.3333333 8.96-8.96 2.9866667 2.9866667c4.8533333 4.8533333 11.2 7.84 19.04 7.84v-7.4666667c-5.6 0-10.08-2.24-13.44-5.6l-7.0933334-7.0933333c-1.8666666-1.4933334-3.7333333-2.24-5.9733333-2.24s-4.1066667.7466666-5.2266667 2.24l-10.4533333 10.4533333c-1.4933333 1.4933333-2.24 3.36-2.24 5.2266667 0 2.24.7466667 4.1066666 2.24 5.2266666l11.9466667 10.4533334v18.6666666h7.4666666v-23.1466666zm30.6133333 5.6c-10.4533333 0-18.6666666 8.2133333-18.6666666 18.6666667 0 10.4533333 8.2133333 18.6666666 18.6666666 18.6666666 10.4533334 0 18.6666667-8.2133333 18.6666667-18.6666666 0-10.4533334-8.2133333-18.6666667-18.6666667-18.6666667zm0 31.7333333c-7.0933333 0-13.0666666-5.9733333-13.0666666-13.0666666 0-7.0933334 5.9733333-13.0666667 13.0666666-13.0666667 7.0933334 0 13.0666667 5.9733333 13.0666667 13.0666667 0 7.0933333-5.9733333 13.0666666-13.0666667 13.0666666z" fill="#32e37f" fill-rule="nonzero"/></g><g font-family="Asap-Bold, Asap" font-size="13.6" font-weight="bold"><text style="font-family: 'Asap', -apple-system, BlinkMacSystemFont, Segoe UI, Oxygen, Ubuntu, Cantarell, Fira Sans, Droid Sans, Helvetica Neue, sans-serif !important;" fill="#000"><tspan x="1.286" y="102.6">Parcelo connected store</tspan></text><text style="font-family: 'Asap', -apple-system, BlinkMacSystemFont, Segoe UI, Oxygen, Ubuntu, Cantarell, Fira Sans, Droid Sans, Helvetica Neue, sans-serif !important;" fill="#32e37f"><tspan x="245.158" y="102.6">Parcelo delivery</tspan></text><text style="font-family: 'Asap', -apple-system, BlinkMacSystemFont, Segoe UI, Oxygen, Ubuntu, Cantarell, Fira Sans, Droid Sans, Helvetica Neue, sans-serif !important;" fill="#000"><tspan x="459.4004" y="102.6">Your doorstep</tspan></text></g></g></svg>