<?xml version="1.0" encoding="UTF-8"?>
<svg width="447px" height="160px" viewBox="0 0 447 160" version="1.1" xmlns="http://www.w3.org/2000/svg" xmlns:xlink="http://www.w3.org/1999/xlink">
    <!-- Generator: Sketch 58 (84663) - https://sketch.com -->
    <title>Artboard</title>
    <desc>Created with Sketch.</desc>
    <g id="Artboard" stroke="none" stroke-width="1" fill="none" fill-rule="evenodd">
        <rect fill="#FFFFFF" x="0" y="0" width="447" height="160"></rect>
        <g id="Group-22">
            <path d="M195.293954,82.9635947 C194.287954,82.4605947 192.191954,81.9555947 189.928954,81.9555947 C181.372954,81.9555947 175.334954,91.1835947 175.334954,99.9895947 C175.248954,104.265595 177.013954,108.292595 181.875954,108.292595 C186.741954,108.292595 191.603954,102.505595 193.030954,95.1255947 L195.293954,82.9635947 Z M165.771954,123.387595 C168.205954,124.815595 172.734954,125.820595 176.590954,125.820595 C182.965954,125.820595 187.832954,122.801595 189.843954,113.324595 L190.849954,108.712595 L190.683954,108.712595 C187.329954,113.575595 183.051954,115.924595 177.852954,115.924595 C169.713954,115.924595 165.103954,109.214595 165.017954,101.497595 C165.017954,87.9105947 174.831954,74.3235947 191.773954,74.3235947 C197.057954,74.3235947 202.171954,75.4975947 205.946954,77.1765947 L199.742954,110.891595 C198.229954,118.860595 195.881954,125.232595 191.351954,129.091595 C187.078954,132.615595 181.291954,133.620595 176.173954,133.620595 C170.975954,133.620595 166.108954,132.529595 163.423954,130.853595 L165.771954,123.387595 Z" id="Fill-1" fill="#005E9C"></path>
            <path d="M210.661654,116.092495 L215.442654,90.9294947 C216.533654,85.1424947 217.036654,78.9364947 217.539654,75.2464947 L226.010654,75.2464947 C225.759654,78.0134947 225.508654,80.8664947 225.085654,83.8864947 L225.337654,83.8864947 C228.106654,78.3504947 232.551654,74.3244947 238.172654,74.3244947 C238.841654,74.3244947 239.595654,74.4094947 240.268654,74.4924947 L238.338654,84.0544947 C237.835654,83.9694947 237.161654,83.8864947 236.492654,83.8864947 C229.529654,83.8864947 225.085654,90.9294947 223.491654,99.6524947 L220.389654,116.092495 L210.661654,116.092495 Z" id="Fill-3" fill="#005E9C"></path>
            <path d="M268.319854,82.2921947 C267.313854,82.0411947 266.051854,81.8731947 264.292854,81.8731947 C255.237854,81.8731947 248.274854,92.0211947 248.274854,101.331195 C248.274854,105.607195 249.868854,109.131195 254.146854,109.131195 C258.672854,109.131195 264.207854,103.428195 266.137854,93.0281947 L268.319854,82.2921947 Z M264.292854,116.092195 C264.378854,113.659195 264.715854,110.389195 265.047854,106.867195 L264.795854,106.867195 C260.773854,114.413195 255.403854,117.015195 250.205854,117.015195 C242.905854,117.015195 238.124854,111.311195 238.124854,103.091195 C238.124854,89.1701947 247.852854,74.3241947 266.891854,74.3241947 C271.336854,74.3241947 276.117854,75.1631947 279.223854,76.1691947 L275.026854,97.4731947 C273.854854,103.594195 273.181854,111.228195 273.351854,116.092195 L264.292854,116.092195 Z" id="Fill-5" fill="#005E9C"></path>
            <path d="M285.110854,116.092495 L291.485854,82.7954947 L286.116854,82.7954947 L287.544854,75.2464947 L292.913854,75.2464947 L293.245854,73.4864947 C295.260854,62.1644947 303.143854,55.7044947 314.551854,55.7044947 C318.825854,55.7044947 323.188854,56.8804947 324.948854,57.9694947 L322.182854,65.5184947 C320.338854,64.6784947 317.231854,63.6734947 313.626854,63.6734947 C306.497854,63.6734947 303.732854,68.3684947 302.807854,73.5694947 L302.555854,75.2464947 L325.370854,75.2464947 L317.653854,116.092495 L307.839854,116.092495 L314.129854,82.7954947 L301.128854,82.7954947 L294.838854,116.092495 L285.110854,116.092495 Z" id="Fill-7" fill="#005E9C"></path>
            <path d="M330.560054,106.949895 C332.657054,108.123895 336.683054,109.717895 340.374054,109.717895 C344.315054,109.634895 346.664054,107.368895 346.664054,104.684895 C346.664054,102.085895 345.321054,100.491895 341.293054,98.3958947 C336.598054,95.8788947 333.245054,92.4408947 333.245054,87.7448947 C333.245054,79.8588947 340.123054,74.3238947 349.765054,74.3238947 C354.043054,74.3238947 357.568054,75.3318947 359.413054,76.4198947 L356.894054,83.4668947 C355.386054,82.6268947 352.616054,81.6208947 349.262054,81.6208947 C345.572054,81.6208947 343.058054,83.6348947 343.058054,86.4028947 C343.058054,88.6668947 344.904054,90.2608947 348.342054,92.0208947 C352.787054,94.4538947 356.814054,97.8068947 356.814054,103.007895 C356.814054,111.982895 349.262054,117.014895 339.449054,117.014895 C334.672054,116.928895 330.223054,115.589895 328.046054,113.995895 L330.560054,106.949895 Z" id="Fill-9" fill="#005E9C"></path>
            <path d="M363.444854,116.092495 L374.765854,56.5444947 L384.409854,56.5444947 L377.531854,92.9434947 L377.702854,92.9434947 C378.959854,91.4344947 380.301854,89.8414947 381.392854,88.5814947 L393.634854,75.2464947 L405.716854,75.2464947 L388.099854,92.1064947 L399.843854,116.092495 L389.024854,116.092495 L380.637854,97.3894947 L375.857854,101.917495 L373.173854,116.092495 L363.444854,116.092495 Z" id="Fill-11" fill="#005E9C"></path>
            <path d="M435.503454,82.2921947 C434.497454,82.0411947 433.240454,81.8731947 431.481454,81.8731947 C422.421454,81.8731947 415.458454,92.0211947 415.458454,101.331195 C415.458454,105.607195 417.052454,109.131195 421.330454,109.131195 C425.859454,109.131195 431.395454,103.428195 433.325454,93.0281947 L435.503454,82.2921947 Z M431.481454,116.092195 C431.561454,113.659195 431.898454,110.389195 432.234454,106.867195 L431.984454,106.867195 C427.956454,114.413195 422.587454,117.015195 417.389454,117.015195 C410.094454,117.015195 405.313454,111.311195 405.313454,103.091195 C405.313454,89.1701947 415.040454,74.3241947 434.080454,74.3241947 C438.525454,74.3241947 443.305454,75.1631947 446.407454,76.1691947 L442.214454,97.4731947 C441.038454,103.594195 440.369454,111.228195 440.535454,116.092195 L431.481454,116.092195 Z" id="Fill-13" fill="#005E9C"></path>
            <path d="M52.741254,121.237995 L27.676254,128.028995 L43.605254,46.8879947 L68.325254,40.1469947 L52.741254,121.237995 Z M152.600254,17.8379947 C135.958254,-1.67700526 105.577254,-4.90700526 75.414254,6.81099474 C76.515254,9.06699474 77.150254,11.5789947 77.150254,14.2399947 C77.150254,23.8089947 69.172254,31.5939947 59.364254,31.5939947 C53.373254,31.5939947 48.077254,28.6809947 44.853254,24.2379947 C43.171254,25.5329947 41.500254,26.8599947 39.854254,28.2609947 C0.961254043,61.4279947 -11.623746,110.534995 11.750254,137.945995 C33.328254,163.249995 77.993254,161.200995 115.331254,134.651995 C111.872254,135.332995 107.437254,135.708995 103.550254,135.708995 C87.939254,135.708995 80.583254,127.817995 80.583254,116.695995 C80.583254,112.028995 81.124254,107.183995 82.555254,100.547995 L87.632254,74.0919947 L75.986254,77.2599947 L79.563254,57.5419947 L91.334254,54.3499947 L95.586254,32.9469947 L122.139254,25.7679947 L118.065254,47.0999947 L136.156254,42.2179947 L132.379254,61.9349947 L114.295254,66.8389947 L108.574254,95.3439947 C107.855254,98.9319947 107.136254,103.413995 107.136254,106.465995 C107.136254,110.770995 108.931254,113.823995 114.674254,113.823995 C116.825254,113.823995 119.516254,113.823995 121.672254,113.463995 C131.061254,112.076995 150.958254,98.4729947 159.943254,76.4299947 C160.229254,75.7289947 160.502254,75.1039947 160.760254,74.5449947 C167.302254,53.2769947 165.076254,32.4689947 152.600254,17.8379947 L152.600254,17.8379947 Z" id="Fill-15" fill="#005E9C"></path>
            <path d="M59.364254,0.562694741 C67.145254,0.562694741 73.472254,6.69869474 73.472254,14.2396947 C73.472254,21.7806947 67.145254,27.9166947 59.364254,27.9166947 C51.586254,27.9166947 45.258254,21.7806947 45.258254,14.2396947 C45.258254,6.69869474 51.586254,0.562694741 59.364254,0.562694741" id="Fill-17" fill="#DB352A"></path>
            <path d="M233.743654,139.529195 L234.004654,146.404195 C234.062654,148.057195 234.033654,149.188195 233.946654,150.581195 L234.004654,150.581195 C234.439654,149.333195 235.019654,148.028195 235.657654,146.607195 L239.080654,139.529195 L241.894654,139.529195 L242.474654,146.404195 C242.590654,148.028195 242.648654,149.333195 242.619654,150.581195 L242.677654,150.581195 C243.112654,149.217195 243.548654,147.941195 244.128654,146.433195 L247.173654,139.529195 L250.596654,139.529195 L243.663654,153.655195 L240.502654,153.655195 L239.863654,147.506195 C239.747654,146.113195 239.689654,144.808195 239.719654,143.329195 L239.660654,143.329195 C238.964654,145.040195 238.587654,146.085195 238.007654,147.361195 L234.846654,153.655195 L231.683654,153.655195 L230.378654,139.529195 L233.743654,139.529195 Z" id="Fill-19" fill="#DB352A"></path>
            <path d="M255.116754,139.529195 L255.377754,146.404195 C255.435754,148.057195 255.406754,149.188195 255.319754,150.581195 L255.377754,150.581195 C255.812754,149.333195 256.392754,148.028195 257.030754,146.607195 L260.453754,139.529195 L263.267754,139.529195 L263.847754,146.404195 C263.963754,148.028195 264.021754,149.333195 263.992754,150.581195 L264.050754,150.581195 C264.485754,149.217195 264.921754,147.941195 265.501754,146.433195 L268.546754,139.529195 L271.969754,139.529195 L265.036754,153.655195 L261.875754,153.655195 L261.236754,147.506195 C261.120754,146.113195 261.062754,144.808195 261.092754,143.329195 L261.033754,143.329195 C260.337754,145.040195 259.960754,146.085195 259.380754,147.361195 L256.219754,153.655195 L253.056754,153.655195 L251.751754,139.529195 L255.116754,139.529195 Z" id="Fill-21" fill="#DB352A"></path>
            <path d="M276.489754,139.529195 L276.750754,146.404195 C276.808754,148.057195 276.779754,149.188195 276.692754,150.581195 L276.750754,150.581195 C277.185754,149.333195 277.765754,148.028195 278.403754,146.607195 L281.826754,139.529195 L284.640754,139.529195 L285.220754,146.404195 C285.336754,148.028195 285.394754,149.333195 285.365754,150.581195 L285.423754,150.581195 C285.858754,149.217195 286.294754,147.941195 286.874754,146.433195 L289.919754,139.529195 L293.342754,139.529195 L286.409754,153.655195 L283.248754,153.655195 L282.609754,147.506195 C282.493754,146.113195 282.435754,144.808195 282.465754,143.329195 L282.406754,143.329195 C281.710754,145.040195 281.333754,146.085195 280.753754,147.361195 L277.592754,153.655195 L274.429754,153.655195 L273.124754,139.529195 L276.489754,139.529195 Z" id="Fill-23" fill="#DB352A"></path>
            <path d="M291.713454,151.857295 C291.713454,150.494295 292.699454,149.362295 294.092454,149.362295 C295.311454,149.362295 296.151454,150.261295 296.151454,151.509295 C296.151454,152.901295 295.136454,153.945295 293.715454,153.945295 C292.525454,153.945295 291.713454,153.046295 291.713454,151.857295" id="Fill-25" fill="#DB352A"></path>
            <path d="M301.863854,135.700595 C301.863854,134.511595 302.792854,133.669595 303.893854,133.669595 C304.967854,133.669595 305.692854,134.394595 305.692854,135.468595 C305.663854,136.715595 304.735854,137.498595 303.575854,137.498595 C302.559854,137.498595 301.863854,136.773595 301.863854,135.700595 L301.863854,135.700595 Z M298.643854,153.655595 L301.341854,139.529595 L304.706854,139.529595 L302.009854,153.655595 L298.643854,153.655595 Z" id="Fill-27" fill="#DB352A"></path>
            <path d="M313.029854,135.903195 L312.362854,139.529195 L315.523854,139.529195 L315.002854,142.140195 L311.840854,142.140195 L310.737854,147.825195 C310.592854,148.492195 310.476854,149.217195 310.476854,149.826195 C310.476854,150.610195 310.824854,151.103195 311.723854,151.103195 C312.130854,151.103195 312.536854,151.074195 312.883854,151.016195 L312.564854,153.655195 C312.072854,153.859195 311.173854,153.945195 310.360854,153.945195 C308.040854,153.945195 307.024854,152.669195 307.024854,151.045195 C307.024854,150.261195 307.111854,149.478195 307.314854,148.434195 L308.533854,142.140195 L306.647854,142.140195 L307.140854,139.529195 L309.026854,139.529195 L309.548854,136.889195 L313.029854,135.903195 Z" id="Fill-29" fill="#DB352A"></path>
            <path d="M326.139154,142.198195 C325.761154,142.024195 325.036154,141.850195 324.253154,141.850195 C321.294154,141.850195 319.206154,145.040195 319.206154,148.086195 C319.206154,149.566195 319.786154,150.958195 321.468154,150.958195 C323.151154,150.958195 324.833154,148.956195 325.327154,146.404195 L326.139154,142.198195 Z M315.928154,156.179195 C316.741154,156.672195 318.307154,157.020195 319.641154,157.020195 C321.846154,157.020195 323.528154,155.976195 324.224154,152.698195 L324.573154,151.103195 L324.514154,151.103195 C323.354154,152.785195 321.874154,153.597195 320.077154,153.597195 C317.262154,153.597195 315.667154,151.277195 315.667154,148.608195 C315.638154,143.880195 319.032154,139.210195 324.891154,139.210195 C326.719154,139.210195 328.489154,139.616195 329.793154,140.196195 L327.647154,151.857195 C327.125154,154.613195 326.342154,156.817195 324.746154,158.152195 C323.267154,159.370195 321.294154,159.718195 319.525154,159.718195 C317.698154,159.718195 316.015154,159.341195 315.087154,158.760195 L315.928154,156.179195 Z" id="Fill-31" fill="#DB352A"></path>
            <path d="M331.095254,153.655695 L332.748254,144.953695 C333.125254,142.951695 333.328254,140.776695 333.474254,139.529695 L336.404254,139.529695 C336.317254,140.486695 336.230254,141.472695 336.084254,142.488695 L336.171254,142.488695 C337.128254,140.602695 338.666254,139.210695 340.580254,139.210695 C340.841254,139.210695 341.103254,139.238695 341.334254,139.238695 L340.667254,142.545695 C340.493254,142.516695 340.261254,142.516695 340.030254,142.516695 C337.621254,142.516695 336.084254,144.953695 335.533254,147.969695 L334.460254,153.655695 L331.095254,153.655695 Z" id="Fill-33" fill="#DB352A"></path>
            <path d="M351.484854,141.965695 C351.135854,141.878695 350.701854,141.820695 350.091854,141.820695 C346.988854,141.820695 344.551854,145.330695 344.551854,148.550695 C344.551854,150.029695 345.102854,151.247695 346.582854,151.247695 C348.177854,151.247695 350.091854,149.275695 350.758854,145.678695 L351.484854,141.965695 Z M350.121854,153.655695 C350.121854,152.814695 350.237854,151.682695 350.352854,150.493695 L350.295854,150.493695 C348.902854,153.075695 347.017854,153.974695 345.218854,153.974695 C342.695854,153.974695 341.042854,152.002695 341.042854,149.159695 C341.042854,144.344695 344.406854,139.210695 350.991854,139.210695 C352.528854,139.210695 354.181854,139.500695 355.284854,139.848695 L353.804854,147.215695 C353.398854,149.304695 353.167854,151.972695 353.224854,153.655695 L350.121854,153.655695 Z" id="Fill-35" fill="#DB352A"></path>
            <path d="M357.136254,153.655695 L359.312254,142.139695 L357.455254,142.139695 L357.948254,139.529695 L359.805254,139.529695 L359.921254,138.920695 C360.646254,135.004695 363.344254,132.770695 367.288254,132.770695 C368.797254,132.770695 370.277254,133.176695 370.886254,133.553695 L369.928254,136.164695 C369.290254,135.874695 368.217254,135.526695 366.970254,135.526695 C364.504254,135.526695 363.547254,137.121695 363.228254,138.920695 L363.141254,139.529695 L371.031254,139.529695 L368.362254,153.655695 L364.968254,153.655695 L367.144254,142.139695 L362.648254,142.139695 L360.472254,153.655695 L357.136254,153.655695 Z" id="Fill-37" fill="#DB352A"></path>
            <path d="M372.534754,150.522895 C373.260754,150.928895 374.652754,151.450895 375.929754,151.450895 C377.292754,151.450895 378.104754,150.667895 378.104754,149.710895 C378.104754,148.840895 377.639754,148.259895 376.247754,147.534895 C374.623754,146.664895 373.463754,145.475895 373.463754,143.851895 C373.463754,141.124895 375.842754,139.209895 379.178754,139.209895 C380.656754,139.209895 381.875754,139.558895 382.484754,139.935895 L381.642754,142.371895 C381.092754,142.081895 380.163754,141.733895 379.003754,141.733895 C377.726754,141.733895 376.856754,142.400895 376.856754,143.357895 C376.856754,144.169895 377.466754,144.721895 378.684754,145.330895 C380.251754,146.171895 381.614754,147.331895 381.614754,149.130895 C381.614754,152.263895 379.003754,154.003895 375.609754,153.974895 C373.956754,153.945895 372.419754,153.481895 371.664754,152.930895 L372.534754,150.522895 Z" id="Fill-39" fill="#DB352A"></path>
            <path d="M383.699754,153.655695 L387.615754,133.060695 L390.980754,133.060695 L388.572754,145.649695 L388.631754,145.649695 C389.065754,145.127695 389.529754,144.576695 389.935754,144.112695 L394.141754,139.529695 L398.318754,139.529695 L392.227754,145.330695 L396.288754,153.655695 L392.547754,153.655695 L389.645754,147.186695 L387.992754,148.724695 L387.064754,153.655695 L383.699754,153.655695 Z" id="Fill-41" fill="#DB352A"></path>
            <path d="M408.149954,141.965695 C407.800954,141.878695 407.366954,141.820695 406.756954,141.820695 C403.653954,141.820695 401.216954,145.330695 401.216954,148.550695 C401.216954,150.029695 401.767954,151.247695 403.247954,151.247695 C404.842954,151.247695 406.756954,149.275695 407.423954,145.678695 L408.149954,141.965695 Z M406.786954,153.655695 C406.786954,152.814695 406.902954,151.682695 407.017954,150.493695 L406.960954,150.493695 C405.567954,153.075695 403.682954,153.974695 401.883954,153.974695 C399.360954,153.974695 397.707954,152.002695 397.707954,149.159695 C397.707954,144.344695 401.071954,139.210695 407.656954,139.210695 C409.193954,139.210695 410.846954,139.500695 411.949954,139.848695 L410.469954,147.215695 C410.063954,149.304695 409.832954,151.972695 409.889954,153.655695 L406.786954,153.655695 Z" id="Fill-43" fill="#DB352A"></path>
            <path d="M413.105954,151.857295 C413.105954,150.494295 414.091954,149.362295 415.484954,149.362295 C416.703954,149.362295 417.543954,150.261295 417.543954,151.509295 C417.543954,152.901295 416.528954,153.945295 415.107954,153.945295 C413.917954,153.945295 413.105954,153.046295 413.105954,151.857295" id="Fill-45" fill="#DB352A"></path>
            <path d="M420.384354,150.522895 C421.110354,150.928895 422.502354,151.450895 423.779354,151.450895 C425.142354,151.450895 425.954354,150.667895 425.954354,149.710895 C425.954354,148.840895 425.489354,148.259895 424.097354,147.534895 C422.473354,146.664895 421.313354,145.475895 421.313354,143.851895 C421.313354,141.124895 423.692354,139.209895 427.028354,139.209895 C428.506354,139.209895 429.725354,139.558895 430.334354,139.935895 L429.492354,142.371895 C428.942354,142.081895 428.013354,141.733895 426.853354,141.733895 C425.576354,141.733895 424.706354,142.400895 424.706354,143.357895 C424.706354,144.169895 425.316354,144.721895 426.534354,145.330895 C428.101354,146.171895 429.464354,147.331895 429.464354,149.130895 C429.464354,152.263895 426.853354,154.003895 423.459354,153.974895 C421.806354,153.945895 420.269354,153.481895 419.514354,152.930895 L420.384354,150.522895 Z" id="Fill-47" fill="#DB352A"></path>
            <path d="M439.410654,141.733795 C437.292654,141.733795 435.900654,143.618795 435.494654,145.330795 C438.974654,145.359795 441.208654,144.895795 441.208654,143.183795 C441.208654,142.284795 440.483654,141.733795 439.410654,141.733795 L439.410654,141.733795 Z M442.630654,152.843795 C441.237654,153.568795 439.351654,153.974795 437.640654,153.974795 C433.724654,153.974795 431.839654,151.566795 431.839654,148.114795 C431.839654,143.851795 434.972654,139.210795 439.845654,139.210795 C442.630654,139.210795 444.399654,140.805795 444.399654,143.183795 C444.399654,146.809795 440.598654,147.969795 435.145654,147.854795 C435.088654,148.347795 435.204654,149.304795 435.522654,149.855795 C436.074654,150.812795 437.089654,151.305795 438.424654,151.305795 C440.018654,151.305795 441.295654,150.899795 442.310654,150.377795 L442.630654,152.843795 Z" id="Fill-49" fill="#DB352A"></path>
        </g>
    </g>
</svg>