<svg height="180" viewBox="0 0 174 180" width="174" xmlns="http://www.w3.org/2000/svg"><g fill="none" fill-rule="evenodd" transform="translate(-8)"><g transform="matrix(-1 0 0 1 182 0)"><path d="m82 67h100v100h-100z"/><g fill-rule="nonzero"><path d="m82.9166667 24.5416667-4.375-18.20833337c-.9166667-3.75-4.1666667-6.33333333-7.9583334-6.33333333h-57.875c-3.74999997 0-7.04166663 2.625-7.91666663 6.33333333l-4.375 18.20833337c-1 4.25-.08333334 8.5833333 2.58333333 12 .33333333.4583333.79166667.7916666 1.16666667 1.2083333v28.9166667c0 4.5833333 3.75 8.3333333 8.33333333 8.3333333h58.3333333c4.5833334 0 8.3333334-3.75 8.3333334-8.3333333v-28.9166667c.375-.375.8333333-.75 1.1666666-1.1666667 2.6666667-3.4166666 3.625-7.7916666 2.5833334-12.0416666zm-12.4583334-16.25000003 4.375 18.20833333c.4166667 1.75.0416667 3.5-1.0416666 4.875-.5833334.75-1.8333334 1.9583333-3.9166667 1.9583333-2.5416667 0-4.75-2.0416666-5.0416667-4.75l-2.4166666-20.24999997zm-24.625.04166666h8.1666667l2.25 18.83333337c.2083333 1.625-.2916667 3.25-1.375 4.4583333-.9166667 1.0833333-2.25 1.7083333-3.9583333 1.7083333-2.7916667 0-5.0833334-2.4583333-5.0833334-5.4583333zm-18.7916666 18.83333337 2.2916666-18.83333337h8.1666667v19.54166667c0 3-2.2916667 5.4583333-5.375 5.4583333-1.4166667 0-2.7083333-.625-3.7083333-1.7083333-1.0416667-1.2083333-1.5416667-2.8333333-1.375-4.4583333zm-18.5416667-.6666667 4.2083333-18.16666667h8.2083334l-2.4166667 20.24999997c-.3333333 2.7083334-2.5 4.75-5.0416667 4.75-2.0416666 0-3.3333333-1.2083333-3.87499997-1.9583333-1.125-1.3333333-1.5-3.125-1.08333333-4.875zm4 40.1666667v-25.125c.3333333.0416666.625.125.9583333.125 3.625 0 6.9166667-1.5 9.3333334-3.9583334 2.5 2.5 5.8333333 3.9583334 9.625 3.9583334 3.625 0 6.875-1.5 9.2916666-3.875 2.4583334 2.375 5.7916667 3.875 9.5416667 3.875 3.5 0 6.8333333-1.4583334 9.3333333-3.9583334 2.4166667 2.4583334 5.7083334 3.9583334 9.3333334 3.9583334.3333333 0 .625-.0833334.9583333-.125v25.125z" fill="#000" transform="translate(90.333333 79.5)"/><path d="m60.5 13.4444444c-20.8388889 0-39.1233333 13.6461112-45.0388889 33.6111112h90.0777779c-5.9155557-19.8977778-24.2672223-33.6111112-45.038889-33.6111112zm0-13.4444444c33.4132274 0 60.5 27.0867726 60.5 60.5h-53.7777778v53.777778c0 11.137742-9.0289242 20.166666-20.1666666 20.166666-11.1377425 0-20.1666667-9.028924-20.1666667-20.166666v-6.722222h13.4444444v6.722222c0 3.712581 3.0096414 6.722222 6.7222223 6.722222 3.7125808 0 6.7222222-3.009641 6.7222222-6.722222v-53.777778c-35.8518519 0-53.7777778 0-53.7777778 0 0-33.4132274 27.0867726-60.5 60.5-60.5z" fill="#32e37f"/></g></g><text style="font-family: 'Asap', -apple-system, BlinkMacSystemFont, Segoe UI, Oxygen, Ubuntu, Cantarell, Fira Sans, Droid Sans, Helvetica Neue, sans-serif !important;" font-family="Asap-Bold, Asap" font-size="13.6" font-weight="bold"><tspan fill="#32e37f" x="13" y="177">Saving </tspan> <tspan fill="#000" x="62.4128" y="177"> your local stores</tspan></text></g></svg>